<svg xmlns="http://www.w3.org/2000/svg" width="21.333" height="21.333" version="1" viewBox="0 0 16 16">
  <path d="M1.89 3.204c-.003.002-.037.006-.076.01-.04.003-.077.008-.085.01-.01.003-.04.007-.06.01l-.11.02c-.05.01-.05.012-.07.02l-.04.01c-.05.008-.24.082-.31.12-.03.015-.05.026-.06.025-.01-.01-.26.15-.27.17-.01 0-.01.01-.02.01-.05.01-.31.28-.39.38l-.03.04c-.02.01-.1.15-.14.21l-.03.09c-.02.01-.12.29-.13.31 0 .01-.01.03-.01.03l-.01.03-.02.07c-.01.08-.02.09-.02.14 0 .03 0 .07-.01.08v4.35c.01.05.03.06.08.05.02-.01.04-.01.04 0h.04c.02-.01.04-.01.05 0h.04c.01-.01.02-.01.02-.01-.01.01.08.01.1 0h.01c0 .01.01.01.03 0 .01-.01.04-.01.05 0h.01s.01-.01.02 0 .02.01.02.01h.15c.03 0 .07 0 .07-.01s.01 0 .02 0h.04c.01-.01.03-.01.04 0h.04c.01-.01.02-.01.02 0-.01.01.08 0 .1-.01 0-.01.01-.01.01 0s.01.01.03 0 .04-.01.05 0h.01s.01-.01.02-.01h.05c.02-.01.04-.01.05 0h.04c.02-.01.03-.01.03-.01.01 0 .07.01.1 0 .02-.01.03-.01.04 0h.03c.01-.01.02-.01.02 0h.03c.02-.01.04-.01.05 0h.03c.01-.01.02-.01.03-.01.01.01.08.01.08 0s.02 0 .04 0h.05c.01-.01.01-.01.01 0h.04s.03-.01.04-.01c.01.01.05.01.05 0s.02-.01.04 0 .05 0 .06-.01c.01-.01.01 0 .01 0h.02c.02-.01.02-.01.03 0h.02c.01-.01.03-.01.04-.01h.24c.02-.01.04-.01.05 0h.04c.01-.01.02-.01.02-.01-.01.01.08.01.1 0 .01-.01.01 0 .01 0h.03c.01-.01.04 0 .05 0 .01.01.01.01.01 0s.01-.01.02 0c.01 0 .02.01.02 0s.06-.01.11 0h.04c0-.01.02-.01.04 0 .02 0 .05 0 .06-.01.01-.01.01-.01.01 0s.01.01.02 0 .02-.01.03 0c0 .01.01.01.01 0 .01 0 .02-.01.04 0h.16c.01 0 .04 0 .05-.01.02-.01.03-.01.04 0h.03c.01-.01.02-.01.02 0h.04c.02-.01.04-.01.05 0h.03c.01-.01.02-.01.02-.01.01.01.08.01.08.01s.02-.01.04 0h.05c.01-.01.02-.01.02 0 0 0 0 .01.01 0s.05-.01.1-.01c.13-.01.17-.02.27-.05.07-.03.19-.09.21-.11.01-.01.01-.01.01 0s0 0 .01 0c0-.01.03-.03.06-.05.08-.06.19-.19.18-.2v-.01c.02 0 .12-.17.12-.2l.01-.04c.01-.02.01-.03.01-.03-.01 0-.01-.01 0-.02.02-.03.04-.13.05-.27 0-.1.01-.13 0-.2v-.34c-.01 0-.01-.01-.01-.02v-.61s.01-.02 0-.05v-.05c.01 0 .01-.02 0-.04 0-.02 0-.04.01-.04s0-.02 0-.04-.01-.04 0-.04 0-.02 0-.05c-.01-.03 0-.05 0-.05 0-.01.01-.01 0-.02s0-.06 0-.1V6.5c0-.032 0-.06.01-.064.01-.01.79 0 .79.01.01.05.01.084 0 .084v.04c-.01 0-.01.12 0 .13v.01c-.01 0-.01.02-.01.03v.03s0 .005-.01.02-.01.025-.01.025.01.02.01.03c0 .02 0 .03-.01.03s0 .01 0 .03c0 .013 0 .024.01.024s0 .01 0 .02c-.01.01-.01.02 0 .03.01 0 .01.01 0 .02v.03c.01.01.01.02 0 .02s-.01.01 0 .02.01.02 0 .02-.01.01 0 .02.01.02 0 .02-.01.01-.01.03v.05c-.01.01-.01.02 0 .02v.02c-.01.01-.01.02 0 .02 0 0 0 .04-.01.06v.03s-.01.02 0 .02 0 0 0 .02-.01.02 0 .02v.01c-.01.01-.02.07-.01.07 0 0 0 .01-.01.02s-.01.02 0 .03c.01 0 .01.01 0 .02v.03s.01.02 0 .03c-.01.01-.01.01 0 .01s.01.01 0 .02-.01.02 0 .02.01.02 0 .03c-.01.01-.01.02 0 .02.01.01.01.04 0 .05-.01.01-.01.02 0 .02.01.01.01.01 0 .03-.01.01-.01.02 0 .02s.01 0 0 .02-.01.02 0 .02.01 0 0 .02l-.01.02.01.03c.01.02.01.02 0 .02s-.01.01 0 .03.01.03 0 .03-.01.01 0 .02.01.02 0 .02-.01.01-.01.03c0 .01 0 .02.01.02s0 .01-.01.02-.01.02 0 .03v.02c-.01.01-.01.02 0 .02v.03s-.01.03 0 .04v.02c-.01.01-.01.02 0 .03v.03l-.01.08v.11c-.02.1-.02.13-.03.18-.01.03-.02.06-.02.07-.02.06-.04.13-.05.14V9c-.01.04-.02.05-.08.16-.11.21-.3.44-.5.59-.02.01-.03.02-.04.03-.01.01-.05.03-.09.06-.04.02-.18.1-.18.09l-.04.02c-.08.05-.31.12-.41.13-.01 0-.04 0-.05.01-.04.01-.12.01-.2.02h-.1c-.01.01-.03.01-.04 0 0 .01-.01.01-.02 0-.01 0-.04-.01-.06 0 0-.01-.02-.01-.03 0-.01.01-.03.01-.03 0s-.01-.01-.02 0c-.02.01-.04.01-.06.01-.01-.01-.04-.01-.06 0h-.05c-.01-.01-.02-.01-.03 0-.02.01-.03.01-.03 0-.01-.01-.01-.01-.02 0s-.03.01-.07 0h-.05c-.02.004-.04.003-.04 0-.01-.006-.02-.006-.03 0-.02.005-.03.005-.03 0-.01-.007-.02-.008-.02 0-.02.01-.04.01-.06 0-.01-.01-.04-.01-.06 0h-.05c0-.01-.02-.01-.03 0h-.03c0-.01-.01-.01-.02-.008-.01.01-.03.01-.07 0h-.05c-.02.003-.04.002-.04 0-.01-.007-.02-.007-.03 0-.02.01-.03.01-.03 0-.01-.008-.02-.01-.02 0-.02.01-.04.01-.06 0-.01-.01-.04-.01-.06 0h-.05c-.01-.01-.02-.01-.03 0-.02.002-.03.002-.03 0-.01-.01-.01-.01-.02 0-.01.002-.03.002-.07 0-.01-.01-.04-.008-.06 0-.02.002-.04 0-.04 0 0-.008-.02-.008-.03 0-.02.003-.03.003-.03 0s-.01-.01-.02 0-.04.01-.06 0c-.01-.01-.03-.01-.06 0h-.05c0-.01-.02-.01-.03 0H1.8c-.01-.01-.01-.01-.02-.007-.01.01-.03.01-.07 0-.01 0-.04 0-.06.007h-.04c0-.01-.02-.01-.03 0-.01-.01-.02-.01-.02-.01-.02.01-.04.01-.06 0h-.05c-.03.007-.05.007-.05 0-.016.01-.027.01-.03 0-.004-.01-.01-.01-.018 0-.01.01-.03.01-.07 0h-.055s-.032.01-.035 0h-.03c-.017.01-.03.01-.03 0h-.02c-.015.01-.038.01-.057.01-.01-.01-.032-.01-.06 0H.95c0-.01-.012-.01-.03 0H.89c0-.01-.01-.01-.012 0-.01.01-.03.01-.07 0H.755c-.02.01-.034.01-.04 0H.68c-.013.01-.025.01-.03 0 .01-.01 0-.01-.01-.01-.01.01-.035.01-.054.007h-.06c-.024.01-.046.01-.05 0h-.03c-.016.01-.027.01-.03 0h-.02c-.005 0-.02.01-.035 0-.06-.01-.14 0-.1.02.01 0 .02.01.02.01 0 .01.09.14.12.18l.04.05c.04.05.22.23.3.29.12.09.27.18.39.24.11.05.26.11.31.12l.1.03c.05.01.1.02.12.03.03 0 .05.01.06.01.02.01.15.02.23.02h.08s.18 0 .2-.01h.03c.01.01.02.01.03 0h.02c.01.01.01.01.03 0h.02c.01.01.06.01.08 0 .01-.01.02 0 .03 0s.03.01.04 0c.01-.01.02-.01.02 0s.01.01.03 0h.04c.01.01.02.01.03 0 .01-.01.02-.01.02 0 .01.01.02.01.03 0s.03 0 .03 0 .01.01.03 0h.04c.01.01.02.01.03 0 .01-.01.02 0 .03 0 .01.01.01.01.03 0h.03c.01.01.07.01.07 0H3c.02.01.03.01.03 0s.01 0 .03 0c.015.01.03.01.03 0h.02c.02.01.1.01.1 0s.01-.01.02 0 .02.01.03 0 .02 0 .03 0c.01.01.02.01.028 0 .01-.01.01-.01.02 0 0 .01.01.01.03 0s.023-.01.023 0 .01.01.02 0h.04c.01.01.03 0 .03 0 .02-.01.02-.01.03 0 .01.01.02.01.03 0 .01 0 .02-.01.03 0 .01.01.07.01.07 0h.03c.01.01.02.01.02 0s.01 0 .03 0c.01.01.02.01.03 0 0 0 .01-.01.02 0 .02.01.09.01.1 0 0-.01.01 0 .02 0 .01.01.02.01.03 0s.02 0 .03 0c.01.01.02.01.03 0s.02 0 .03 0c.01.01.02.01.03 0s.02-.01.03 0 .03.01.04 0c.01-.01.02-.01.02 0s.01.01.02 0 .02-.01.02 0 .01.01.03 0h.03s.01.01.02 0h.04c.01.01.02.01.03 0 .01-.01.02 0 .02 0 .01.01.02.01.03 0 .01 0 .02-.01.02 0 .01.01.06.01.07 0h.06c.01-.01.02-.01.02 0s.08 0 .08 0c0-.01.02-.01.03 0 .02.01.02.01.02 0s.01-.01.02 0 .02.01.03 0 .01-.01.02 0h.07c.02.01.02.01.02 0s.01-.01.02 0 .02.01.03 0 .03-.01.05 0c0 .01.01 0 .01 0h.03s.03.01.03 0c.01-.01.02 0 .03 0 .02.01.02.01.03 0 .01 0 .02-.01.03 0s.02.01.03 0c.01-.01.02-.01.02 0s.01.01.03 0h.03s.04.01.09.01c.05 0 .09-.01.09-.01s.01-.01.02 0h.03s.01-.01.03 0 .03 0 .03 0 .01-.01.02 0 .09.01.1 0c0-.01.01 0 .03 0 .01.01.02.01.02 0s.01-.01.02 0 .02.01.02 0c.01-.01.01-.01.02 0 .01 0 .01.01.01.02-.01 0 0 .01 0 .01s.01.02.01.06 0 .08.01.11l.01.09c0 .02 0 .04.01.05 0 0 .01.02.01.03.01.06.11.33.13.35v.02c0 .01.06.12.07.12.01.01.03.04.04.06.01.01.01.02.02.02s.02.02.04.04c.04.06.21.23.29.28.02.01.04.03.05.04.01.01.03.02.037.02h.01c0 .01.19.11.28.15l.07.02c.01.01.03.01.03.01l.03.01c.01.01.03.01.04.01.01 0 .02 0 .02.01 0 0 .01.01.03.01.018 0 .06.01.11.02.08.01.25.03.27.02.01-.01.01-.02 0-.02v-.05c.007-.01 0-.03 0-.05v-.04c.007-.01.007-.03 0-.04-.002-.01-.002-.03 0-.04.007 0 .007-.02 0-.04s0-.03 0-.04c.007 0 .007-.02 0-.04v-.04c.008 0 .008-.01 0-.03v-.04c.007-.01.007-.03 0-.04-.002-.01-.002-.03 0-.04.007-.01.007-.02 0-.04s0-.03 0-.04c.007-.01.007-.03 0-.04s0-.04 0-.05c.007-.01.007-.03 0-.04-.002-.02-.002-.03 0-.04.008 0 .008-.02 0-.04v-.04c.007-.01.007-.03 0-.05s-.002-.04 0-.05v-.21c-.01-.02-.01-.04 0-.04s0-.02 0-.04c-.01-.02-.01-.04 0-.05v-.04c-.01-.01-.01-.02 0-.03v-.04c-.01-.02-.01-.04-.01-.05.007-.02.01-.05.007-.08v-.05c.01-.03.01-.03.02-.03h.03c.01-.01.02-.01.03 0h.02s.02-.01.03-.01c.01.01.07.01.07 0h.02c.01.01.02.01.02 0s.01 0 .03 0c.01.01.02.01.03 0h.02c.02.01.09.01.1 0h.02c.01.01.02.01.03 0s.02 0 .03 0c.01.01.02.01.03 0s.02 0 .03 0c.01.01.02.01.03 0h.02s.02.01.03 0H8c0 .01.01.01.02 0s.02 0 .02 0c0 .01.01.01.024 0s.01.01.02 0c.01.01.02.01.03 0h.02c0 .01.01.01.02 0h.02c.01.01.06.01.08 0 0 0 .01 0 .02.01s.02.005.03 0c.01-.006.02-.007.02 0 0 .01.08.01.08 0h.03c.02.01.02.01.02 0 0-.005.01-.005.02 0 .01.01.02.01.03 0 0-.005.01-.005.01 0 0 .01.02.01.03 0h.04c.01.01.02.01.02 0h.02c.01.01.02.01.03 0 0-.01.03 0 .05.01 0 0 .01 0 .01-.01 0-.005.01-.005.03 0s.03.01.03 0 .01-.005.02 0c.01.01.02.01.02 0 .006-.005.015-.01.025 0s.02.01.04 0c.01-.01.02-.01.02 0s0 .01.02 0c.01 0 .02-.005.02 0s.04.01.09.01c.05 0 .09-.005.09-.01s.01 0 .02 0c.02.01.022.01.022 0s.01-.005.03 0c.01.01.03.01.03 0s.01-.006.02 0c.01.005.08.005.09 0 0-.006.02-.005.03 0 .01.01.02.01.02 0s.01-.01.02 0 .02.01.03 0 .01-.01.02 0c.01.004.02.005.03 0h.05c.02.01.03.01.03 0s.01-.01.02 0 .02.01.02 0c.01-.01.04-.01.05.004h.02c.02.01.02.01.03 0h.03s.03.01.04 0h.03c.01.01.02.01.03 0s.02 0 .02 0c0 .01.01.01.03 0h.03s.01.01.027 0h.03c.01.01.02.01.03 0 0 .01.01.01.02 0 0 .01.06.01.07 0h.02s.02.01.03 0h.02s.01.01.03 0h.04c.01.01.02.01.03 0h.03s.02.01.02 0h.03s.02.01.03 0h.024c0 .01.01.01.03 0s.02 0 .02 0c0 .01.01.01.02 0h.024s.01.01.03 0h.04c.01.01.023.01.03 0h.026c.01.01.01.01.03 0h.026c0 .01.06.01.07 0 .01 0 .02 0 .02.004s.02 0 .03 0c.01-.01.02-.01.02-.01 0 .01.08 0 .09 0 .01-.01.02-.01.03 0h.03c0-.01.01-.01.02 0h.03c.01-.01.01-.01.02-.01h.03c.01-.006.03-.006.05 0 .01.004.02.004.02 0 0-.01.01-.01.02 0 .01.004.02.004.03 0 .01-.01.04-.01.06 0 0 .01.01 0 .02 0s.02-.01.03 0 .03.01.03 0c.01-.01.02-.01.03 0 .01.01.02.01.03 0 0-.01.01-.01.02 0s.02 0 .03 0c.01-.01.02-.01.02 0s.01.01.03 0c.02-.01.03-.01.03 0s.04.01.09.01c.05 0 .09 0 .09-.006s.01 0 .02 0c.02.01.03.01.03 0s.01 0 .03 0 .03.01.03 0 .02 0 .02 0c.02.01.09.01.1 0h.03c.02.01.02.01.02 0h.02c.02.01.02.01.03 0s.02.01.03 0c.01-.01.03-.01.04 0h.02c0-.01.01-.01.02 0h.02c0-.01.04-.01.05 0h.06c.01.01.02.01.02 0s.01-.01.02 0 .02.01.03 0 .02 0 .02 0c.01.01.02.01.03 0s.02 0 .03 0c.01.01.02.01.02 0s.03-.01.06-.01c.07 0 .16-.01.19-.01.01 0 .04-.01.06-.01l.11-.02.08-.02.04-.01c.02-.01.03-.01.03 0l.01-.01s.02-.01.03-.01c.01 0 .03-.01.03-.01.01-.01.02-.01.02-.01l.15-.06c.05-.03.1-.05.11-.05.01 0 .01-.01.01-.01 0-.01.01-.01.01-.01s.05-.02.08-.05c.04-.03.08-.05.08-.05.01 0 .01-.01.01-.01 0-.01.01-.02.02-.02.03-.01.14-.11.14-.12 0-.006.01-.01.01-.01.02 0 .24-.22.29-.3l.04-.06c.05-.05.07-.09.07-.1l.01-.01c.01 0 .01-.01.02-.02l.06-.12c.06-.11.13-.27.12-.27s.01-.007.01-.01l.03-.12s.04-.13.04-.16l.01-.06.02-.17c0-.03 0-.056.01-.06s-.01-.06 0-.07c0-.01 0-.06-.01-.08V8.9c.01-.004.01-.013 0-.024-.01-.01-.01-.02 0-.03s0-.02 0-.03c-.01-.01-.01-.02 0-.03s.01-.02 0-.03c-.01-.02-.01-.03 0-.03s.01-.01.01-.03-.01-.01-.01-.03c0-.016 0-.03.004-.03.01 0 0-.17 0-.176-.01 0 0-.01 0-.02.003-.01.003-.02 0-.03-.01 0-.01-.01 0-.02s0-.02 0-.03-.01-.02-.01-.02c.005-.01.01-.1.004-.11-.003-.02-.002-.05 0-.07.008-.01.007-.02 0-.02-.01 0-.01-.01 0-.02s.008-.03 0-.03c-.01-.01-.01-.02 0-.03.008-.01.01-.02 0-.03-.01 0-.01-.02 0-.03.008-.02.008-.03 0-.03s-.01-.01 0-.02c.008-.02.008-.03 0-.03-.003-.01-.01-.02 0-.023.01-.02.01-.08 0-.09V7.8c.01-.01.01-.023 0-.03-.006-.002 0-.01 0-.023.01-.013.01-.02 0-.025-.02-.01 0-.022.06-.04l.06-.02c.04-.01.1-.03.11-.03l.07-.03c.034-.01.07-.03.08-.033.01-.01.03-.02.04-.02.01 0 .02-.01.02-.01 0-.01.01-.01.02-.01s.02-.01.027-.01c.01-.01.03-.02.05-.03.1-.06.13-.08.21-.13l.09-.07c0-.01.01-.01.02-.01s.02-.01.03-.02l.04-.04c.05-.04.19-.18.25-.25l.06-.07c.01-.01.11-.16.11-.17 0-.01.01-.01.01-.01l.02-.03c.01-.02.02-.05.04-.07.02-.02.04-.08.06-.12l.04-.09c.01-.02.04-.12.04-.14 0-.01 0-.02.01-.03V6.2l.01-.08c0-.03.01-.05.01-.06.01-.04.02-.19.01-.19 0 .01-.01.01-.01 0-.01-.01-.08-.002-.1.008-.01 0-.01 0-.01-.01s0-.01-.02-.01c-.02.005-.03.005-.04 0-.01-.004-.02-.003-.03 0-.01.01-.02.01-.02 0s0-.01-.01 0-.02.01-.03.005h-.06c-.02.005-.04.005-.04 0 0-.004-.01-.004-.03 0-.01.006-.03.006-.03 0s-.02 0-.05 0c-.02.005-.05.004-.05 0s-.01-.004-.03 0c-.01.006-.03.01-.03 0s-.08-.004-.08 0c-.01.01-.02.006-.03 0-.02-.01-.02-.01-.02 0s-.01.01-.02 0c-.01-.004-.03-.005-.03 0-.01.005-.05.006-.06 0-.01-.005-.06 0-.08 0-.01.005-.02 0-.02 0 0-.01-.01-.01-.03 0s-.02.004-.03 0c0-.01-.01-.01-.02 0-.01.004-.02 0-.03-.004-.01-.01-.01-.01-.01 0s0 .01-.02 0c-.01-.01-.02-.01-.02 0h-.03s-.03-.01-.03 0h-.03s-.02-.01-.03 0h-.03c0-.01-.01-.01-.02-.01s-.04.01-.07.01c-.03 0-.08.01-.12.02-.03.01-.07.02-.08.02V6l-.01.006-.04.02c-.02.008-.047.016-.05.016s-.01 0-.02.01l-.03.017-.03.01c0 .01 0 .01-.01 0 0 0-.03 0-.05.02l-.04.02c-.01 0-.118.07-.12.08l-.01.01c-.01 0-.06.04-.12.11-.05.04-.128.17-.11.17.002 0 0 0 0 .01s-.01.02 0 .02 0 .01-.01.01-.016-.01-.016-.02c0-.03-.02-.08-.06-.14-.05-.06-.07-.08-.14-.14-.03-.03-.06-.05-.07-.06 0-.01-.01-.01-.014-.01s-.05-.02-.09-.05c-.17-.1-.38-.17-.51-.18-.03 0-.06 0-.068-.01h-.03c-.01 0-.05.01-.06 0h-.08c-.008.01-.02 0-.03 0-.02-.01-.027-.01-.03 0 0 0-.01.01-.02 0s-.02-.01-.027-.01c-.01.01-.07.01-.07 0s-.01-.01-.03 0h-.03c0-.01-.07-.01-.08 0 0 0-.01 0-.01-.01s-.01-.01-.03 0h-.05c-.01-.01-.01-.01-.02 0 0 .01-.01.01-.02 0s-.02-.01-.02 0c0 0-.01.01-.02 0s-.03-.01-.04 0h-.03c0-.01-.06-.01-.07 0H12c-.02-.01-.025-.01-.028 0 0 0-.01.01-.02 0s-.02-.01-.027-.01c-.01.01-.075.01-.075 0h-.06c0-.01-.07-.01-.08 0h-.01s-.02-.01-.043 0h-.05c0-.01-.007-.01-.015-.01-.01.01-.01.03-.01.09 0 .04.007.09.01.1.005.01.01.04.01.06.005.02.01.06.017.07l.01.04c.01.04.05.17.08.22l.01.03c0 .02.05.13.06.13 0 0 .01 0 0 .01 0 0 0 .01.01.01l.02.05.02.04.04.06.05.07.02.02c.1.12.21.24.34.34.1.08.26.19.28.19h.02l.06.04c.03.01.06.03.07.03.01.01.27.11.31.12 0 0 .01 0 .01.01l.01.01h.03c.06.01.09.02.08.04 0 .01 0 .02.01.03.01.01 0 .02 0 .03-.01.01-.01.02 0 .02.01.01.01.01 0 .02s-.01.02 0 .03v.05c-.01.01 0 .03 0 .04.01 0 .01.01 0 .02s-.01.02 0 .02 0 .02 0 .04v.08s-.01.03-.01.07c0 .03-.01.08-.01.1 0 .03-.01.06-.01.08l-.02.06-.02.06c-.01.07-.09.25-.15.36-.09.13-.2.26-.32.35l-.07.05c-.01.01-.04.03-.06.04-.02.01-.04.03-.05.03l-.04.02c-.01 0-.02.01-.02.01s-.01.01-.01 0c-.01 0-.03.01-.06.02-.06.03-.18.07-.19.07-.01 0-.06.01-.08.02-.01.01-.03.01-.09.01-.02 0-.04.01-.04.01 0 .01-.02.01-.04.01s-.05 0-.06.01h-.03c-.01-.01-.05-.01-.07 0 0 .01-.01.01-.01 0s-.02 0-.05-.01c-.06 0-.13 0-.2-.02l-.05-.01h-.03c-.05-.01-.11-.03-.12-.04-.01-.01-.02-.01-.03-.01-.02 0-.27-.12-.27-.13 0-.01-.01-.01-.01-.01-.01 0-.12-.08-.17-.12-.07-.07-.15-.15-.18-.2-.01-.02-.03-.05-.04-.06-.01-.01-.02-.03-.02-.03 0-.01 0-.02-.01-.02s-.01 0-.01-.01-.01-.03-.03-.05c-.02-.02-.03-.04-.02-.05s-.01 0-.01-.01c0 0 0-.02-.01-.04-.02-.03-.09-.23-.1-.27 0-.02-.01-.04-.01-.04l-.01-.03-.01-.04-.01-.11c0-.05-.006-.09-.01-.1-.005-.01-.004-.01 0 0s.01-.01.01-.03c-.01-.02-.01-.03 0-.03s0-.01 0-.02c-.01-.01-.01-.02-.01-.02.01 0 .01-.12 0-.13.01 0 .01-.02.01-.03v-.02c0-.02.004-.03 0-.03s-.01-.01-.01-.03c0-.02 0-.03.01-.03s0-.01 0-.02 0-.02-.01-.02 0-.01.004-.02.01-.02 0-.03c-.01 0-.01-.02 0-.04V7.5c-.01 0-.01-.01 0-.02v-.02c-.01-.01-.01-.02 0-.02s.01-.01 0-.02c-.01-.02-.01-.03 0-.03s.01-.01 0-.03c-.01-.01-.01-.02 0-.02s.01-.11 0-.13V7.2s.01-.01.01-.03v-.02c-.01 0-.01-.01 0-.02V7.1s-.01-.01-.01-.03v-.05s0-.023-.01-.023 0-.01 0-.02.01-.02 0-.026c-.01-.01-.01-.02 0-.04-.01-.01-.01-.02 0-.03v-.03c-.01-.01-.01-.02 0-.02s.01-.01 0-.03c-.01-.02-.01-.03 0-.03.01-.01.01-.02 0-.03-.01-.01-.01-.02 0-.02s.01-.11 0-.13c-.01-.01-.01-.01 0-.01 0 0 .01-.01.01-.03s-.005-.03-.01-.02c-.01 0-.01-.01 0-.02V6.5s-.01-.01-.01-.03c0-.01 0-.03.005-.03s.01-.01.01-.02 0-.02-.005-.02 0-.01.01-.02 0-.02 0-.02c-.01 0-.01-.02 0-.03s0-.03 0-.04c-.01-.01-.01-.02 0-.03v-.03c-.01-.01-.01-.02 0-.02V6.2c-.01-.01-.01-.027 0-.03v-.02c-.01-.01-.01-.02-.01-.02.01 0 .01-.11 0-.13.01 0 .01-.01.01-.03v-.02c-.004 0 0-.006 0-.02s.005-.026 0-.026-.01-.018-.01-.03c0-.02.01-.03.01-.03s.01-.01.01-.03-.01-.03-.01-.03v-.02s.005-.02 0-.024c-.006-.003-.006-.02 0-.035.004-.013.004-.03 0-.03-.01-.003-.01-.01 0-.02.004-.01.004-.027 0-.04-.01-.01-.01-.013 0-.013.005 0 .005-.01 0-.024-.01-.014-.01-.025 0-.03.01-.003.005-.01 0-.025-.01-.01-.01-.02 0-.02s0-.11 0-.13c-.01 0-.01-.01 0-.01v-.03c0-.01-.01-.023-.01-.02-.01 0-.01-.01 0-.02 0-.02 0-.03-.01-.03s-.01-.002 0-.01v-.03c-.01-.01-.01-.02 0-.02s.01-.004 0-.02c-.01-.01-.01-.02 0-.03.01-.01.01-.01 0-.01s-.01-.03-.01-.07V5l-.01-.085c0-.03-.01-.06-.013-.07-.01-.01-.01-.02-.01-.02s-.003-.05-.02-.1l-.03-.104s0-.01-.01-.02l-.01-.03c0-.01-.003-.02-.01-.04l-.03-.07c-.063-.16-.17-.34-.285-.48-.07-.09-.26-.28-.34-.33l-.05-.04c-.02-.01-.04-.03-.04-.03l-.02-.01-.08-.04c-.08-.05-.32-.17-.36-.18 0 0-.02 0-.02-.01-.03-.01-.12-.04-.13-.04-.01 0-.02 0-.03-.01-.01 0-.03-.01-.05-.01l-.03-.01c-.004 0-.02 0-.03-.01-.013 0-.05-.01-.083-.01s-.07-.01-.086-.01c-.03 0-6.7-.01-6.7 0zm3.435 1.82c.072.025.116.054.166.106.03.03.06.063.06.076.01.013.01.024.02.024.03 0 .05.224.03.265 0 .01-.01.026-.01.035 0 .03-.04.1-.09.143-.08.088-.18.126-.3.122-.18-.006-.33-.13-.37-.303-.01-.055-.01-.183.01-.205l.01-.02.01-.012.01-.014c0-.03.11-.15.13-.15v-.02c.01-.01.02-.01.02-.01 0 .01.01 0 .02 0 .06-.04.23-.06.31-.02z"/>
</svg>
