<svg xmlns="http://www.w3.org/2000/svg" width="400" height="240">
  <path fill="#413F64" fill-rule="evenodd" d="M368.572 70H400c0 19.638-16.367 39.262-40 45.27V149c0 28.167-22.833 51-51 51H180v40c-22.092 0-40-17.908-40-40H51c-18.668 0-34.985-10.035-43.873-25H95c24.813 0 45-20.186 45-45V82.095h-20V130c0 13.785-11.215 25-25 25H.363c-.23-1.97-.363-3.97-.363-6V51C0 22.834 22.833 0 51 0h158c28.166 0 51 22.834 51 51v74c0 19.33 15.67 35 35 35s35-15.67 35-35v-9.73c-23.633-6.008-40-25.632-40-45.27h31.428c2.36 0 5.432.713 8.572 1.92 7.31 2.806 15 8.298 15 13.795C345 77.857 360.715 70 368.572 70zM130 65c5.523 0 10-4.477 10-10s-4.477-10-10-10-10 4.477-10 10 4.477 10 10 10z"/>
</svg>
